<svg height="512pt" viewBox="-91 0 512 512" width="512pt" xmlns="http://www.w3.org/2000/svg"><path d="m150 136h30v60.597656h-30zm0 0" fill="#766e6e"/><path d="m165 136h15v60.597656h-15zm0 0" fill="#5b5555"/><path d="m300 376 11.699219 45c-25.199219 49.199219-74.101563 85-131.699219 90.097656l-15-22.199218-146.699219-217.898438c27.300781-53.402344 82.800781-90 146.699219-90 85.800781 0 156.597656 66 164.097656 150zm0 0" fill="#73e6d3"/><path d="m300 376 11.699219 45c-25.199219 49.199219-74.101563 85-131.699219 90.097656l-15-22.199218v-307.898438c85.800781 0 156.597656 66 164.097656 150zm0 0" fill="#6cb"/><path d="m210 271h30v30h-30zm0 0" fill="#b9df47"/><path d="m165 402.699219c9.300781 8.101562 15 20.101562 15 33.300781v75.097656c-4.800781.601563-9.902344.902344-15 .902344-90.902344 0-165-75.101562-165-166 0-27 6.597656-52.5 18.300781-75h116.699219c11.699219 0 22.199219 4.5 30 11.699219 9.300781 8.101562 15 20.101562 15 33.300781s-5.699219 25.199219-15 33.300781c-7.800781 7.199219-18.300781 11.699219-30 11.699219-8.402344 0-15 6.597656-15 15 0 8.398438 6.597656 15 15 15 11.699219 0 22.199219 4.5 30 11.699219zm0 0" fill="#daf569"/><g fill="#b9df47"><path d="m329.238281 331h-74.238281c-24.851562 0-45 20.148438-45 45s20.148438 45 45 45h56.785156c11.558594-22.53125 18.214844-47.984375 18.214844-75 0-5.0625-.3125-10.050781-.761719-15zm0 0"/><path d="m165 282.699219c9.300781 8.101562 15 20.101562 15 33.300781s-5.699219 25.199219-15 33.300781zm0 0"/><path d="m165 402.699219c9.300781 8.101562 15 20.101562 15 33.300781v75.097656c-4.800781.601563-9.902344.902344-15 .902344zm0 0"/></g><path d="m330 0v15c0 74.398438-60.601562 136-135 136h-60c-57.898438 0-105-48.101562-105-106v-15h45c49.5 0 67.199219 27 90 44.398438 21.898438-44.097657 67.5-74.398438 120-74.398438zm0 0" fill="#daf569"/><path d="m330 0v15c0 74.398438-60.601562 136-135 136h-30v-76.601562c21.898438-44.097657 67.5-74.398438 120-74.398438zm0 0" fill="#b9df47"/></svg>